<?xml version="1.0" encoding="utf-8"?>
<!-- Generator: Adobe Illustrator 20.1.0, SVG Export Plug-In . SVG Version: 6.00 Build 0)  -->
<svg version="1.1" id="Layer_1" xmlns="http://www.w3.org/2000/svg" xmlns:xlink="http://www.w3.org/1999/xlink" x="0px" y="0px"
	 viewBox="0 0 72 72" style="enable-background:new 0 0 72 72;" xml:space="preserve">
<style type="text/css">
	.st0{fill:#FFFFFF;}
</style>
<g>
	<path class="st0" d="M36,1.3C16.8,1.3,1.3,16.8,1.3,36c0,19.2,15.6,34.8,34.7,34.8c19.2,0,34.8-15.6,34.8-34.8
		C70.8,16.8,55.2,1.3,36,1.3z M36,68.4C18.1,68.4,3.6,53.9,3.6,36S18.1,3.6,36,3.6S68.4,18.1,68.4,36S53.9,68.4,36,68.4z"/>
	<polygon class="st0" points="52.3,22.2 51.5,20.3 38.4,25.9 46.3,14.1 44.6,13 36.9,24.4 36.9,10.4 34.9,10.4 34.9,24.4 27.2,13 
		25.5,14.1 33.4,25.9 20.3,20.3 19.5,22.2 32.4,27.6 18.6,30.3 19,32.3 33,29.5 22.9,39.5 24.3,40.9 35.8,29.6 35.8,29.7 35.9,29.6 
		36,29.7 36.1,29.6 47.5,40.9 48.9,39.5 38.9,29.5 52.8,32.3 53.2,30.3 39.5,27.6 	"/>
	<rect x="32.9" y="55.9" class="st0" width="2" height="5.8"/>
	<rect x="36.9" y="55.9" class="st0" width="2" height="5.8"/>
	<polygon class="st0" points="31.1,39 32.8,40.7 36,37.5 39.2,40.6 40.8,39 36,34.2 	"/>
	<polygon class="st0" points="31.1,45 32.8,46.7 36,43.4 39.2,46.6 40.8,44.9 36,40.1 	"/>
	<polygon class="st0" points="31.1,51.4 32.8,53 36,49.8 39.2,52.9 40.8,51.3 36,46.5 	"/>
	<polygon class="st0" points="14.3,29.1 12.7,27.4 7.9,32.2 12.8,37.1 14.4,35.5 11.2,32.2 	"/>
	<polygon class="st0" points="59.2,27.4 57.6,29.1 60.8,32.3 57.7,35.5 59.3,37.1 64.1,32.3 	"/>
</g>
</svg>
